<?xml version="1.0" encoding="UTF-8" standalone="no"?>
<!DOCTYPE svg PUBLIC "-//W3C//DTD SVG 1.0//EN" "http://www.w3.org/TR/2001/PR-SVG-20010719/DTD/svg10.dtd">
<svg width="34cm" height="35cm" viewBox="-422 -3 664 699" xmlns="http://www.w3.org/2000/svg" xmlns:xlink="http://www.w3.org/1999/xlink">
  <defs/>
  <g id="Fondo">
    <rect style="fill: #ffffff; fill-opacity: 1; stroke-opacity: 1; stroke-width: 2; stroke: #000000" x="-186.996" y="384" width="153" height="65" rx="0" ry="0"/>
    <text font-size="12.8" style="fill: #000000; fill-opacity: 1; stroke: none;text-anchor:middle;font-family:sans-serif;font-style:normal;font-weight:normal" x="-110.496" y="404.925">
      <tspan x="-110.496" y="404.925">root</tspan>
      <tspan x="-110.496" y="420.925">&lt;&lt;selector&gt;&gt;</tspan>
      <tspan x="-110.496" y="436.925">[ip4,domain]</tspan>
    </text>
    <rect style="fill: #ffffff; fill-opacity: 1; stroke-opacity: 1; stroke-width: 2; stroke: #000000" x="-319.696" y="286.5" width="153" height="65" rx="0" ry="0"/>
    <text font-size="12.8" style="fill: #000000; fill-opacity: 1; stroke: none;text-anchor:middle;font-family:sans-serif;font-style:normal;font-weight:normal" x="-243.196" y="307.425">
      <tspan x="-243.196" y="307.425">ip-service</tspan>
      <tspan x="-243.196" y="323.425">&lt;&lt;wbefore&gt;&gt;</tspan>
      <tspan x="-243.196" y="339.425">[ip4]</tspan>
    </text>
    <rect style="fill: #ffffff; fill-opacity: 1; stroke-opacity: 1; stroke-width: 2; stroke: #000000" x="-419.696" y="189.5" width="153" height="65" rx="0" ry="0"/>
    <text font-size="12.8" style="fill: #000000; fill-opacity: 1; stroke: none;text-anchor:middle;font-family:sans-serif;font-style:normal;font-weight:normal" x="-343.196" y="210.425">
      <tspan x="-343.196" y="210.425">my-whitelist-ip4</tspan>
      <tspan x="-343.196" y="226.425">&lt;&lt;file&gt;&gt;</tspan>
      <tspan x="-343.196" y="242.425">[ip4]</tspan>
    </text>
    <rect style="fill: #ffffff; fill-opacity: 1; stroke-opacity: 1; stroke-width: 2; stroke: #000000" x="-250.696" y="189.5" width="153" height="65" rx="0" ry="0"/>
    <text font-size="12.8" style="fill: #000000; fill-opacity: 1; stroke: none;text-anchor:middle;font-family:sans-serif;font-style:normal;font-weight:normal" x="-174.196" y="210.425">
      <tspan x="-174.196" y="210.425">blacklist-ip4</tspan>
      <tspan x="-174.196" y="226.425">&lt;&lt;parallel&gt;&gt;</tspan>
      <tspan x="-174.196" y="242.425">[ip4]</tspan>
    </text>
    <rect style="fill: #ffffff; fill-opacity: 1; stroke-opacity: 1; stroke-width: 2; stroke: #000000" x="-420.696" y="101.5" width="153" height="65" rx="0" ry="0"/>
    <text font-size="12.8" style="fill: #000000; fill-opacity: 1; stroke: none;text-anchor:middle;font-family:sans-serif;font-style:normal;font-weight:normal" x="-344.196" y="122.425">
      <tspan x="-344.196" y="122.425">my-blacklist-ip4</tspan>
      <tspan x="-344.196" y="138.425">&lt;&lt;file&gt;&gt;</tspan>
      <tspan x="-344.196" y="154.425">[ip4]</tspan>
    </text>
    <rect style="fill: #ffffff; fill-opacity: 1; stroke-opacity: 1; stroke-width: 2; stroke: #000000" x="-85.696" y="-1.4998" width="153" height="65" rx="0" ry="0"/>
    <text font-size="12.8" style="fill: #000000; fill-opacity: 1; stroke: none;text-anchor:middle;font-family:sans-serif;font-style:normal;font-weight:normal" x="-9.196" y="19.4252">
      <tspan x="-9.196" y="19.4252">remote1-blacklist</tspan>
      <tspan x="-9.196" y="35.4252">&lt;&lt;grpc&gt;&gt;</tspan>
      <tspan x="-9.196" y="51.4252">[ip4,domain]</tspan>
    </text>
    <rect style="fill: #ffffff; fill-opacity: 1; stroke-opacity: 1; stroke-width: 2; stroke: #000000" x="88.304" y="-0.4998" width="153" height="65" rx="0" ry="0"/>
    <text font-size="12.8" style="fill: #000000; fill-opacity: 1; stroke: none;text-anchor:middle;font-family:sans-serif;font-style:normal;font-weight:normal" x="164.804" y="20.4252">
      <tspan x="164.804" y="20.4252">remote2-blacklist</tspan>
      <tspan x="164.804" y="36.4252">&lt;&lt;dnsxl&gt;&gt;</tspan>
      <tspan x="164.804" y="52.4252">[ip4,domain]</tspan>
    </text>
    <rect style="fill: #ffffff; fill-opacity: 1; stroke-opacity: 1; stroke-width: 2; stroke: #000000" x="-59.696" y="287.5" width="153" height="65" rx="0" ry="0"/>
    <text font-size="12.8" style="fill: #000000; fill-opacity: 1; stroke: none;text-anchor:middle;font-family:sans-serif;font-style:normal;font-weight:normal" x="16.804" y="308.425">
      <tspan x="16.804" y="308.425">domain-service</tspan>
      <tspan x="16.804" y="324.425">&lt;&lt;wbefore&gt;&gt;</tspan>
      <tspan x="16.804" y="340.425">[domain]</tspan>
    </text>
    <rect style="fill: #ffffff; fill-opacity: 1; stroke-opacity: 1; stroke-width: 2; stroke: #000000" x="-82.696" y="189.5" width="153" height="65" rx="0" ry="0"/>
    <text font-size="12.8" style="fill: #000000; fill-opacity: 1; stroke: none;text-anchor:middle;font-family:sans-serif;font-style:normal;font-weight:normal" x="-6.196" y="210.425">
      <tspan x="-6.196" y="210.425">my-whitelist-domain</tspan>
      <tspan x="-6.196" y="226.425">&lt;&lt;file&gt;&gt;</tspan>
      <tspan x="-6.196" y="242.425">[domain]</tspan>
    </text>
    <rect style="fill: #ffffff; fill-opacity: 1; stroke-opacity: 1; stroke-width: 2; stroke: #000000" x="86.304" y="189.5" width="153" height="65" rx="0" ry="0"/>
    <text font-size="12.8" style="fill: #000000; fill-opacity: 1; stroke: none;text-anchor:middle;font-family:sans-serif;font-style:normal;font-weight:normal" x="162.804" y="210.425">
      <tspan x="162.804" y="210.425">blacklist-domain</tspan>
      <tspan x="162.804" y="226.425">&lt;&lt;parallel&gt;&gt;</tspan>
      <tspan x="162.804" y="242.425">[domain]</tspan>
    </text>
    <g>
      <line style="fill: none; stroke-opacity: 1; stroke-width: 2; stroke: #000000" x1="-154.038" y1="384.508" x2="-191.808" y2="356.757"/>
      <polygon style="fill: #000000; fill-opacity: 1; stroke-opacity: 1; stroke-width: 2; stroke: #000000" fill-rule="evenodd" points="-197.852,352.316 -186.833,354.208 -191.808,356.757 -192.754,362.266 "/>
    </g>
    <g>
      <line style="fill: none; stroke-opacity: 1; stroke-width: 2; stroke: #000000" x1="-66.3326" y1="383.022" x2="-35.1182" y2="359.36"/>
      <polygon style="fill: #000000; fill-opacity: 1; stroke-opacity: 1; stroke-width: 2; stroke: #000000" fill-rule="evenodd" points="-29.1413,354.829 -34.0899,364.854 -35.1182,359.36 -40.1309,356.885 "/>
    </g>
    <g>
      <line style="fill: none; stroke-opacity: 1; stroke-width: 2; stroke: #000000" x1="-277.73" y1="285.502" x2="-301.674" y2="262.277"/>
      <polygon style="fill: #000000; fill-opacity: 1; stroke-opacity: 1; stroke-width: 2; stroke: #000000" fill-rule="evenodd" points="-307.057,257.055 -296.398,260.428 -301.674,262.277 -303.361,267.606 "/>
    </g>
    <g>
      <line style="fill: none; stroke-opacity: 1; stroke-width: 2; stroke: #000000" x1="-219.368" y1="285.502" x2="-203.668" y2="263.431"/>
      <polygon style="fill: #000000; fill-opacity: 1; stroke-opacity: 1; stroke-width: 2; stroke: #000000" fill-rule="evenodd" points="-199.32,257.32 -201.043,268.367 -203.668,263.431 -209.191,262.57 "/>
    </g>
    <g>
      <line style="fill: none; stroke-opacity: 1; stroke-width: 2; stroke: #000000" x1="-238.776" y1="188.571" x2="-270.97" y2="171.906"/>
      <polygon style="fill: #000000; fill-opacity: 1; stroke-opacity: 1; stroke-width: 2; stroke: #000000" fill-rule="evenodd" points="-277.63,168.458 -266.451,168.615 -270.97,171.906 -271.048,177.495 "/>
    </g>
    <g>
      <line style="fill: none; stroke-opacity: 1; stroke-width: 2; stroke: #000000" x1="-127.973" y1="188.498" x2="-32.6292" y2="119.394"/>
      <polygon style="fill: #000000; fill-opacity: 1; stroke-opacity: 1; stroke-width: 2; stroke: #000000" fill-rule="evenodd" points="-26.5565,114.993 -31.7191,124.91 -32.6292,119.394 -37.5877,116.813 "/>
    </g>
    <g>
      <line style="fill: none; stroke-opacity: 1; stroke-width: 2; stroke: #000000" x1="-96.6914" y1="194.922" x2="123.758" y2="117.901"/>
      <polygon style="fill: #000000; fill-opacity: 1; stroke-opacity: 1; stroke-width: 2; stroke: #000000" fill-rule="evenodd" points="130.839,115.427 123.047,123.446 123.758,117.901 119.749,114.005 "/>
    </g>
    <g>
      <line style="fill: none; stroke-opacity: 1; stroke-width: 2; stroke: #000000" x1="114.39" y1="188.498" x2="14.278" y2="119.221"/>
      <polygon style="fill: #000000; fill-opacity: 1; stroke-opacity: 1; stroke-width: 2; stroke: #000000" fill-rule="evenodd" points="8.11062,114.953 19.1789,116.532 14.278,119.221 13.4886,124.755 "/>
    </g>
    <g>
      <line style="fill: none; stroke-opacity: 1; stroke-width: 2; stroke: #000000" x1="162.804" y1="189.5" x2="164.017" y2="124.432"/>
      <polygon style="fill: #000000; fill-opacity: 1; stroke-opacity: 1; stroke-width: 2; stroke: #000000" fill-rule="evenodd" points="164.157,116.933 168.97,127.025 164.017,124.432 158.972,126.838 "/>
    </g>
    <rect style="fill: #ffffff; fill-opacity: 1; stroke-opacity: 1; stroke-width: 2; stroke: #000000" x="-251.696" y="40.5002" width="153" height="65" rx="0" ry="0"/>
    <text font-size="12.8" style="fill: #000000; fill-opacity: 1; stroke: none;text-anchor:middle;font-family:sans-serif;font-style:normal;font-weight:normal" x="-175.196" y="61.4252">
      <tspan x="-175.196" y="61.4252">geoip2-spanish</tspan>
      <tspan x="-175.196" y="77.4252">&lt;&lt;geoip2&gt;&gt;</tspan>
      <tspan x="-175.196" y="93.4252">[ip4]</tspan>
    </text>
    <g>
      <line style="fill: none; stroke-opacity: 1; stroke-width: 2; stroke: #000000" x1="-174.421" y1="188.515" x2="-174.906" y2="116.221"/>
      <polygon style="fill: #000000; fill-opacity: 1; stroke-opacity: 1; stroke-width: 2; stroke: #000000" fill-rule="evenodd" points="-174.956,108.721 -169.889,118.687 -174.906,116.221 -179.889,118.755 "/>
    </g>
    <g>
      <line style="fill: none; stroke-opacity: 1; stroke-width: 2; stroke: #000000" x1="8.93986" y1="286.492" x2="3.89269" y2="264.987"/>
      <polygon style="fill: #000000; fill-opacity: 1; stroke-opacity: 1; stroke-width: 2; stroke: #000000" fill-rule="evenodd" points="2.17905,257.685 9.33164,266.278 3.89269,264.987 -0.40383,268.563 "/>
    </g>
    <g>
      <line style="fill: none; stroke-opacity: 1; stroke-width: 2; stroke: #000000" x1="66.7242" y1="286.492" x2="104.8" y2="260.934"/>
      <polygon style="fill: #000000; fill-opacity: 1; stroke-opacity: 1; stroke-width: 2; stroke: #000000" fill-rule="evenodd" points="111.027,256.754 105.511,266.479 104.8,260.934 99.9377,258.176 "/>
    </g>
    <g>
      <ellipse style="fill: #ffffff; fill-opacity: 1; stroke-opacity: 1; stroke-width: 2; stroke: #000000" cx="-109.696" cy="604.75" rx="6" ry="6"/>
      <line style="fill: none; stroke-opacity: 1; stroke-width: 2; stroke: #000000" x1="-133.696" y1="616.75" x2="-85.696" y2="616.75"/>
      <line style="fill: none; stroke-opacity: 1; stroke-width: 2; stroke: #000000" x1="-109.696" y1="610.75" x2="-109.696" y2="640.75"/>
      <line style="fill: none; stroke-opacity: 1; stroke-width: 2; stroke: #000000" x1="-109.696" y1="640.75" x2="-133.696" y2="666.75"/>
      <line style="fill: none; stroke-opacity: 1; stroke-width: 2; stroke: #000000" x1="-109.696" y1="640.75" x2="-85.696" y2="666.75"/>
      <text font-size="12.8" style="fill: #000000; fill-opacity: 1; stroke: none;text-anchor:middle;font-family:sans-serif;font-style:normal;font-weight:normal" x="-109.696" y="690.65">
        <tspan x="-109.696" y="690.65"></tspan>
      </text>
    </g>
    <g>
      <line style="fill: none; stroke-opacity: 1; stroke-width: 2; stroke: #000000" x1="-110.598" y1="585.762" x2="-111.436" y2="534.685"/>
      <polygon style="fill: #000000; fill-opacity: 1; stroke-opacity: 1; stroke-width: 2; stroke: #000000" fill-rule="evenodd" points="-111.559,527.186 -106.396,537.103 -111.436,534.685 -116.395,537.267 "/>
    </g>
    <text font-size="12.8" style="fill: #000000; fill-opacity: 1; stroke: none;text-anchor:start;font-family:sans-serif;font-style:normal;font-weight:normal" x="-99.696" y="560.25">
      <tspan x="-99.696" y="560.25">REQUEST</tspan>
    </text>
    <rect style="fill: #ffffff; fill-opacity: 1; stroke-opacity: 1; stroke-width: 2; stroke: #000000" x="-186.696" y="453.75" width="151" height="20" rx="0" ry="0"/>
    <text font-size="12.7998" style="fill: #000000; fill-opacity: 1; stroke: none;text-anchor:middle;font-family:sans-serif;font-style:normal;font-weight:normal" x="-111.196" y="467.988">
      <tspan x="-111.196" y="467.988">&lt;&lt;cache&gt;&gt;</tspan>
    </text>
    <rect style="fill: #ffffff; fill-opacity: 1; stroke-opacity: 1; stroke-width: 2; stroke: #000000" x="-187.096" y="479.95" width="151" height="20" rx="0" ry="0"/>
    <text font-size="12.7998" style="fill: #000000; fill-opacity: 1; stroke: none;text-anchor:middle;font-family:sans-serif;font-style:normal;font-weight:normal" x="-111.596" y="494.188">
      <tspan x="-111.596" y="494.188">&lt;&lt;log&gt;&gt;</tspan>
    </text>
    <rect style="fill: #ffffff; fill-opacity: 1; stroke-opacity: 1; stroke-width: 2; stroke: #000000" x="-187.096" y="504.95" width="151" height="20" rx="0" ry="0"/>
    <text font-size="12.7998" style="fill: #000000; fill-opacity: 1; stroke: none;text-anchor:middle;font-family:sans-serif;font-style:normal;font-weight:normal" x="-111.596" y="519.188">
      <tspan x="-111.596" y="519.188">&lt;&lt;metrics&gt;&gt;</tspan>
    </text>
    <rect style="fill: #ffffff; fill-opacity: 1; stroke-opacity: 1; stroke-width: 2; stroke: #000000" x="88.904" y="68.7002" width="151" height="20" rx="0" ry="0"/>
    <text font-size="12.7998" style="fill: #000000; fill-opacity: 1; stroke: none;text-anchor:middle;font-family:sans-serif;font-style:normal;font-weight:normal" x="164.404" y="83.1252">
      <tspan x="164.404" y="83.1252">&lt;&lt;response&gt;&gt;</tspan>
    </text>
    <rect style="fill: #ffffff; fill-opacity: 1; stroke-opacity: 1; stroke-width: 2; stroke: #000000" x="88.904" y="93.7002" width="151" height="20" rx="0" ry="0"/>
    <text font-size="12.7998" style="fill: #000000; fill-opacity: 1; stroke: none;text-anchor:middle;font-family:sans-serif;font-style:normal;font-weight:normal" x="164.404" y="108.125">
      <tspan x="164.404" y="108.125">&lt;&lt;metrics&gt;&gt;</tspan>
    </text>
    <rect style="fill: #ffffff; fill-opacity: 1; stroke-opacity: 1; stroke-width: 2; stroke: #000000" x="-85.096" y="67.7002" width="151" height="20" rx="0" ry="0"/>
    <text font-size="12.7998" style="fill: #000000; fill-opacity: 1; stroke: none;text-anchor:middle;font-family:sans-serif;font-style:normal;font-weight:normal" x="-9.596" y="82.1252">
      <tspan x="-9.596" y="82.1252">&lt;&lt;response&gt;&gt;</tspan>
    </text>
    <rect style="fill: #ffffff; fill-opacity: 1; stroke-opacity: 1; stroke-width: 2; stroke: #000000" x="-85.096" y="92.7002" width="151" height="20" rx="0" ry="0"/>
    <text font-size="12.7998" style="fill: #000000; fill-opacity: 1; stroke: none;text-anchor:middle;font-family:sans-serif;font-style:normal;font-weight:normal" x="-9.596" y="107.125">
      <tspan x="-9.596" y="107.125">&lt;&lt;metrics&gt;&gt;</tspan>
    </text>
  </g>
</svg>
