<?xml version="1.0" encoding="UTF-8" standalone="no"?>
<svg
   xmlns:dc="http://purl.org/dc/elements/1.1/"
   xmlns:cc="http://creativecommons.org/ns#"
   xmlns:rdf="http://www.w3.org/1999/02/22-rdf-syntax-ns#"
   xmlns:svg="http://www.w3.org/2000/svg"
   xmlns="http://www.w3.org/2000/svg"
   xmlns:sodipodi="http://sodipodi.sourceforge.net/DTD/sodipodi-0.dtd"
   xmlns:inkscape="http://www.inkscape.org/namespaces/inkscape"
   width="50px"
   height="50px"
   viewBox="0 0 1500 1500"
   version="1.1"
   xml:space="preserve"
   style="clip-rule:evenodd;fill-rule:evenodd;stroke-linejoin:round;stroke-miterlimit:2"
   id="svg42"
   sodipodi:docname="luIDS_logo_blanco.svg"
   inkscape:version="1.0.1 (3bc2e813f5, 2020-09-07)"><metadata
   id="metadata48"><rdf:RDF><cc:Work
       rdf:about=""><dc:format>image/svg+xml</dc:format><dc:type
         rdf:resource="http://purl.org/dc/dcmitype/StillImage" /><dc:title></dc:title></cc:Work></rdf:RDF></metadata><defs
   id="defs46">
        
    
            
            
            
        
                
            
                
            </defs><sodipodi:namedview
   pagecolor="#ffffff"
   bordercolor="#666666"
   borderopacity="1"
   objecttolerance="10"
   gridtolerance="10"
   guidetolerance="10"
   inkscape:pageopacity="0"
   inkscape:pageshadow="2"
   inkscape:window-width="1920"
   inkscape:window-height="1006"
   id="namedview44"
   showgrid="false"
   inkscape:zoom="0.20381984"
   inkscape:cx="374.53916"
   inkscape:cy="524.09602"
   inkscape:window-x="0"
   inkscape:window-y="0"
   inkscape:window-maximized="1"
   inkscape:current-layer="svg42"
   inkscape:document-rotation="0"
   inkscape:pagecheckerboard="true" />
    <g
   id="g851"
   style="opacity:1;fill:#ffffff"><path
     d="m 758.54187,218.08658 46.16427,-12.89309 c 6.73229,-1.88025 13.10718,-1.32793 19.19184,1.89737 6.32509,3.15816 10.88915,8.36331 13.1723,16.53823 l 8.79686,31.4975 c 1.61163,5.77053 1.47305,11.77068 -1.27138,17.72104 -2.88955,7.28685 -8.44128,12.46608 -16.85664,14.81639 l -107.47618,30.01674 c -8.17492,2.28315 -14.81842,0.76909 -20.04746,-2.1768 -5.22903,-2.94588 -9.96638,-7.84345 -12.24953,-16.01837 L 641.02702,131.41882 c -1.8131,-6.49185 -1.02034,-12.93389 1.96452,-18.9514 3.15816,-6.3251 8.5366,-11.19674 16.47108,-13.412743 l 35.58496,-9.938429 c 6.01097,-1.678789 12.07827,-1.299764 18.26907,1.377514 7.18071,3.437579 12.05236,8.81602 14.33551,16.990938 z m -97.25084,-92.06805 c -0.40291,-1.44263 -0.56538,-2.95242 0.36821,-4.24993 0.45271,-1.16321 1.76104,-2.047 3.44411,-2.51706 l 35.58496,-9.93843 c 1.44263,-0.40291 2.71198,-0.49823 4.24993,0.36821 1.4708,0.626 2.28743,1.69389 2.75749,3.37696 l 36.4633,130.55831 66.12069,-18.46668 c 1.44263,-0.40291 2.77913,-0.25779 4.24993,0.36821 1.23036,0.69315 2.04699,1.76104 2.58421,3.68455 l 8.79685,31.49749 c 0.40291,1.44264 0.25779,2.77913 -0.36821,4.24994 -0.626,1.4708 -1.69389,2.28743 -3.37696,2.75749 l -107.47617,30.01675 c -3.36615,0.94012 -5.51928,-0.27289 -6.52655,-3.87948 z"
     id="path30"
     style="stroke-width:249.64;fill:#ffffff" /><path
     d="M 307.71332,165.69429 C 357.488,134.5508 411.49882,107.4081 467.23548,86.81574 573.06061,47.67064 684.1417,21.23397 790.5944,42.610803 c 93.07748,18.631185 183.09552,73.308807 262.7193,188.979047 0.6668,0.98059 1.216,2.03963 1.6082,3.09866 71.3868,-14.12047 139.0475,-18.31739 198.275,-9.53132 50.3631,7.76626 95.1563,26.86813 130.6929,52.75567 27.9664,20.39625 50.2846,44.95019 65.3464,71.03384 31.3004,54.16772 32.6732,114.49354 -5.5305,161.99325 -22.5536,27.53493 -64.8365,54.95219 -112.0225,77.50573 -63.699,30.43748 -135.282,53.26558 -169.681,63.54215 -1.1375,22.23975 -3.687,45.57776 -8.1978,70.17092 -8.7076,47.3036 -24.8677,98.84334 -42.4791,158.03168 -9.0998,32.1633 5.0991,72.01443 24.2794,116.29781 6.6288,15.37566 14.4343,30.90816 21.8475,47.06826 10.9434,23.8087 21.4553,48.4019 28.8686,74.6424 8.5115,30.1237 13.4144,61.6986 9.7274,95.3525 -0.8629,8.0408 -2.7456,16.0424 -4.746,24.2009 -15.1796,48.9117 -41.6162,82.0556 -70.3671,104.4523 -32.0064,24.9069 -66.1309,36.5956 -88.253,42.7929 -7.1779,2.0004 -14.1204,6.2365 -16.7876,5.6089 -5.0599,6.315 -12.4339,14.9442 -23.49495,22.5144 -9.72744,6.668 -22.12208,12.7868 -38.28218,15.7286 -15.06184,2.7064 -27.92716,2.3534 -39.18432,1.059 -13.25756,-1.5297 -24.16171,-4.5107 -33.22235,-7.1386 -4.98139,-1.4513 -8.82529,-3.2164 -12.0024,-2.5104 -40.32181,9.1784 -91.58698,28.0057 -139.20437,41.7339 -22.59276,6.5111 -44.40106,11.7671 -63.89516,14.8265 -32.75166,5.1383 -66.56236,6.5111 -100.17694,3.334 -22.27897,-2.0788 -44.36183,-6.4719 -65.974,-12.3162 -54.91297,-14.9049 -106.57038,-40.9886 -149.32405,-77.3881 -30.12368,-26.0052 -55.22675,-55.6974 -75.85834,-88.4098 -14.94417,9.4921 -33.77147,15.3364 -53.93237,16.1209 -29.06465,1.0982 -60.1297,-7.4133 -82.36945,-27.2604 -15.29719,-13.6498 -34.79129,-49.8924 -51.382849,-91.6262 -21.337609,-53.6971 -39.498112,-115.9448 -42.871337,-141.8716 -5.64819,-43.9304 23.259564,-76.13289 60.051246,-89.11589 8.9822,-3.17711 18.3174,-5.17751 27.57416,-5.92275 -0.35301,-1.29438 -0.58835,-2.58876 -0.78447,-3.88313 l -0.23534,-0.98059 c -1.56895,-6.51111 -5.13829,-20.00401 -10.00201,-38.59597 C 98.063458,829.94506 46.013811,628.06147 37.14929,518.62777 31.73644,451.94774 75.941378,366.79342 153.87857,287.71875 c 22.78888,-23.14189 48.36263,-45.89155 76.1329,-67.58217 -5.3344,-7.68782 -8.43306,-16.9838 -8.43306,-26.9858 0,-26.20133 21.25916,-47.4605 47.42127,-47.4605 15.96398,0 30.12368,7.92316 38.71364,20.00401 z m 613.18171,785.0593 c 15.3364,-18.59196 28.86853,-37.9684 40.94938,-57.81551 12.90455,-21.14149 23.84792,-42.83212 33.37924,-64.7973 8.11925,-18.74886 14.94415,-37.69383 20.94535,-56.6388 6.1973,-19.45488 11.4533,-38.83131 15.5718,-58.1293 13.6105,-63.4637 14.6304,-125.51535 6.0404,-179.13394 -7.0995,-44.20494 -20.0432,-82.72246 -39.53734,-110.7673 -0.70602,-0.94136 -1.37282,-2.19651 -1.96118,-3.64779 -35.69342,-3.96157 -77.50572,-4.11847 -123.04426,0.0785 -15.33641,1.41205 -31.10428,3.334 -47.22515,5.84431 20.74925,32.86933 31.22194,69.19034 32.43787,107.78631 0.50991,17.14069 -1.13748,34.67361 -4.35381,52.40266 -4.39304,24.51471 -12.00241,49.42166 -22.16131,74.40706 -9.3352,22.90656 -20.78848,45.89155 -34.16371,68.64121 -12.51231,21.29839 -26.63279,42.4791 -42.08686,63.18914 -44.12649,59.07066 -98.45111,114.76809 -154.50155,163.99365 -0.70603,0.6668 -1.84351,0.6668 -2.54953,-0.0392 -0.66681,-0.74525 -0.66681,-1.88273 0.0784,-2.54953 50.67682,-53.38325 98.45111,-113.39527 137.24319,-174.97624 7.92316,-12.59076 15.45408,-25.22074 22.63199,-37.85072 17.53293,-30.71204 32.43787,-61.50253 43.8127,-91.94 8.66841,-23.22034 15.17951,-46.24456 19.29799,-68.75888 2.90254,-15.76786 4.5107,-31.30039 5.02061,-46.55835 1.21593,-36.4779 -4.6676,-71.50452 -22.1613,-104.09929 -32.04564,5.80508 -65.22876,13.76746 -99.00024,24.00481 -31.33961,9.45288 -63.18913,20.78848 -94.9602,34.43827 3.60856,4.43227 7.02101,9.41366 10.04122,14.86573 3.80469,6.90334 6.78568,14.43426 9.29599,21.92596 1.09825,4.8245 2.11807,9.60977 2.5103,14.23815 0.47069,5.17751 0.39224,10.08045 -0.0784,14.63038 -0.8237,7.72704 -2.70643,14.1597 -5.76587,18.86653 -0.43145,0.86292 -1.49049,1.25515 -2.35341,0.82369 -0.90214,-0.39223 -1.25515,-1.45127 -0.86292,-2.35341 1.56895,-4.6676 1.41205,-10.55113 0.62758,-17.25836 -0.50991,-4.11847 -1.45127,-8.43306 -2.47108,-13.02222 -0.90215,-4.15769 -1.88273,-8.51151 -3.17711,-12.86532 -1.64739,-8.70763 -4.23614,-17.45448 -7.25636,-25.6522 -1.60816,-4.31459 -3.1771,-8.43306 -4.98139,-12.27697 -19.65099,8.58996 -39.26277,18.04283 -58.71765,28.51552 -97.1175,50.95138 -166.22939,112.29701 -219.2204,175.21158 -64.09128,76.09368 -104.7661,154.58 -141.20477,220.90702 3.60857,12.59076 6.23654,21.88674 7.60937,26.9858 1.29437,4.90294 1.72583,9.37443 1.49049,13.336 20.12168,59.38446 38.28218,122.80896 61.65942,183.48776 -0.78447,-17.6506 -0.47068,-37.2624 1.56894,-58.6 5.37363,-50.8337 22.3182,-107.66862 41.18472,-153.87396 3.4909,-8.51151 7.02102,-16.63078 10.8257,-24.1617 4.27537,-8.47229 8.74685,-16.12088 13.02222,-23.10267 4.11847,-6.70723 7.96238,-12.59076 11.68862,-17.76827 11.37483,-15.76786 21.45528,-27.14269 23.29878,-26.90735 1.84351,0.23534 3.13789,1.92195 2.90255,3.72624 0,0.15689 -3.76546,13.96358 -11.45328,36.47789 -3.37322,9.96279 -7.4917,21.49451 -12.59076,34.16371 -3.76546,9.4921 -8.27617,19.41566 -12.86532,29.88835 -9.60977,21.80829 -20.1609,45.49931 -29.06465,69.97486 -8.94297,24.6324 -16.74845,49.7354 -21.29838,73.8579 -5.84431,30.0845 -7.60937,56.9134 -7.33481,79.663 v 1.4121 c 5.09906,12.2377 10.43347,24.2794 16.12088,36.1249 5.41285,11.2963 11.25716,22.2397 17.10147,33.1831 22.8281,42.7144 49.9708,82.3694 87.74307,114.3366 36.32101,31.1435 80.36905,53.1479 127.04507,66.2486 18.74886,5.2559 37.92917,8.943 57.18793,11.5317 29.29999,3.9616 58.83532,5.5305 87.74308,2.981 17.92516,-1.5689 38.00761,-5.0991 58.99221,-9.4921 49.1471,-10.2766 102.53035,-24.7501 144.02887,-30.712 5.05983,-0.7453 10.74725,-0.4315 17.14069,1.3728 9.21753,2.5887 21.10226,9.0999 37.57615,10.9041 8.35462,0.9414 17.96439,0.078 28.9862,-2.6279 10.47269,-2.5888 18.3174,-7.0995 24.43627,-11.8848 10.47269,-8.2369 15.68942,-17.8859 19.1411,-22.5927 1.60816,-2.1966 8.04082,-6.7857 19.61176,-10.7081 16.3955,-5.6089 50.8337,-16.8661 81.4673,-44.2049 20.8669,-18.6312 39.4589,-45.3816 48.6764,-83.6246 1.1767,-4.2361 2.0004,-8.4723 3.0595,-12.63 10.7864,-42.5183 11.2964,-82.6048 2.7456,-121.1615 -6.5111,-29.2608 -15.6109,-57.3056 -26.2013,-82.9186 -21.5337,-51.85355 -43.4597,-95.5878 -35.5365,-133.43853 11.6101,-59.58056 19.2587,-111.98322 26.5543,-158.73769 5.962,-37.92917 11.6494,-71.97521 12.8653,-103.98162 2.3534,-60.56116 -7.021,-112.80693 -35.3012,-165.01347 -16.0032,-9.57054 -37.9291,-16.94457 -64.3658,-21.92596 18.7096,27.88794 33.34,63.85593 41.6162,105.15833 11.3356,56.71725 11.061,123.31883 -3.6086,190.86178 -4.4715,20.47469 -10.2373,41.06705 -17.8075,61.34563 -7.3348,19.65099 -16.2778,38.9882 -26.672,57.93318 -12.0024,21.92596 -25.96598,43.18512 -42.00841,63.50292 -22.71044,28.75086 -49.34322,55.34442 -80.21216,79.34923 -0.47068,0.43146 -1.21593,0.39224 -1.60816,-0.0784 -0.39224,-0.43146 -0.39224,-1.05904 -0.0392,-1.4905 0,-0.19612 0.0392,-0.39223 0.19612,-0.54913 3.41245,-8.08005 4.35382,-16.74845 6.8249,-26.24055 2.15729,-8.35462 4.54993,-16.8269 7.13869,-25.06385 1.60816,-5.21673 3.68701,-10.11967 5.53052,-14.90494 4.11847,-10.78648 7.80548,-20.20013 10.31579,-27.41726 -1.80429,3.29477 -3.64779,6.55033 -5.64819,9.72744 -3.64779,5.8443 -7.53092,11.37482 -11.76707,16.63078 -4.27536,5.37363 -8.86452,10.43346 -13.76746,15.10106 -4.94217,4.70683 -10.27657,8.9822 -15.80709,12.983 -8.74685,6.43266 -18.04283,12.08085 -27.77027,17.06224 -14.1597,7.29558 -29.22154,13.02222 -45.14631,17.57215 -0.39223,0.1569 -0.78447,-0.0392 -0.94136,-0.43146 -0.15689,-0.39223 0.0392,-0.82369 0.43146,-0.94136 19.92556,-8.74685 37.77227,-19.72945 54.32461,-32.28098 7.4917,-5.68742 14.55194,-11.80629 21.61218,-18.00361 4.6676,-4.11847 9.29598,-8.27617 13.92436,-12.55154 5.76586,-5.29517 11.45327,-10.62958 17.06224,-16.27777 5.53052,-5.56974 10.98259,-11.06104 16.23855,-17.06224 0.0392,-0.47068 0.43146,-0.82369 0.94136,-0.78447 0.47068,0 0.86292,0.43146 0.8237,0.94136 0.82369,7.6486 2.31419,21.96519 0.90214,39.302 -0.43146,5.45207 -1.05904,11.10026 -2.58876,16.70923 -1.49049,5.64819 -3.53012,11.29638 -6.04042,16.67001 z m -69.77869,344.77501 c -1.76506,5.9619 -4.0008,11.8455 -6.8249,17.5329 -1.92195,3.9223 -4.1577,7.727 -6.70723,11.2964 -7.17791,10.002 -16.35622,18.8273 -27.02502,25.9267 -3.25555,2.1573 -6.62878,4.1577 -10.23735,5.8443 -8.04082,3.7263 -16.67,5.7659 -25.92676,7.9232 -5.09906,1.2159 -10.27657,2.5888 -15.76787,3.4124 -0.54913,0.1177 -1.09826,-0.2353 -1.1767,-0.7844 -0.11767,-0.5492 0.23534,-1.0983 0.78447,-1.216 5.21673,-1.3728 10.27657,-2.824 14.94417,-4.9421 8.11927,-3.7263 14.66961,-8.9822 21.25916,-14.0813 2.8241,-2.1965 5.53052,-4.4322 8.19772,-6.7072 8.70763,-7.3348 16.04243,-15.6502 22.55354,-24.397 2.35342,-3.1772 4.70683,-6.2758 6.94257,-9.4529 9.41365,-13.4929 17.29758,-27.7703 21.06305,-43.1067 2.15729,-8.7076 2.86331,-17.5329 2.98098,-26.1229 -0.0392,-0.5491 0.39224,-1.0198 0.98059,-1.0198 0.54913,0 1.01982,0.4315 1.01982,0.9806 0.54913,8.7468 -0.11768,17.729 -1.01982,26.8289 -0.98059,9.4137 -2.47108,18.945 -4.94216,28.241 7.96238,2.8633 19.06264,5.2951 31.92796,7.5701 7.68782,1.3728 15.80709,2.4319 24.24016,3.5693 8.0016,1.0591 16.08165,1.8828 24.04403,2.7065 5.37363,0.5883 10.6688,1.0982 15.80709,1.6474 1.88273,0.2353 3.72624,0.4314 5.53052,0.6668 -0.23534,-5.609 -0.54913,-12.5516 -0.78447,-19.5726 -0.39224,-10.0804 -0.58835,-19.8079 -0.78447,-25.8875 -0.0784,-2.0789 -0.47068,-6.0405 -0.27457,-6.6288 0.19612,-0.7845 0.86292,-0.9022 1.25516,-0.9806 0.39223,-0.039 1.21593,0 1.68661,0.8237 0.0784,0.1177 0.19612,0.3922 0.39223,0.8629 0.35302,0.8237 1.01982,2.5103 1.92196,4.9422 2.07885,5.7658 5.37362,15.0226 8.39384,24.6716 3.02021,9.5705 5.64819,19.0626 7.17791,25.1423 0.78447,3.2555 1.09826,5.6482 1.21593,6.7857 0.98059,9.4136 -8.27617,10.6688 -9.92356,10.8257 -7.80549,0.4314 -16.27777,0.5883 -25.02462,-0.3138 -3.60857,-0.3923 -7.29558,-1.0198 -10.94337,-1.7651 -8.39384,-1.7258 -16.74846,-3.9223 -24.82851,-6.6288 -21.61217,-7.2563 -40.63559,-16.7876 -52.12809,-24.5931 z M 197.96583,1091.7622 c -10.43346,14.2774 -18.19972,33.1832 -16.19932,52.991 1.01981,10.4335 4.23614,21.1023 11.41405,31.1828 5.92276,8.3938 14.43427,16.1601 25.49531,23.4949 0.78447,0.4707 1.01981,1.4512 0.54912,2.2357 -0.47068,0.7845 -1.49049,1.0198 -2.23574,0.5491 -12.1593,-6.7464 -21.29838,-14.5519 -28.47629,-22.5535 -9.33521,-10.4335 -15.02262,-21.4945 -18.00361,-32.9085 -4.86372,-18.3959 -2.62798,-37.3016 3.56934,-53.8148 1.4905,-3.9223 3.29478,-7.6878 5.25596,-11.2571 -2.0004,-1.2944 -4.07925,-2.4319 -6.1581,-3.4909 -12.51231,-6.4719 -25.80909,-9.4137 -38.87053,-7.2564 -9.96279,1.6866 -19.651,5.3344 -27.8095,11.924 -6.04043,4.9029 -11.139486,11.2572 -15.218735,18.7096 8.550733,25.3384 20.082455,55.1483 32.320205,82.5264 14.94417,33.5361 30.43747,63.5029 43.38124,74.1325 14.19892,11.6494 33.77147,15.4148 51.65741,13.9636 13.02222,-1.0199 25.69143,-4.7069 33.49691,-11.8848 -0.43146,-0.9413 -0.90214,-1.8435 -1.3336,-2.7456 -5.84431,-12.277 -10.94337,-24.907 -15.72864,-37.7723 -15.45408,-41.2632 -26.9858,-84.6052 -37.10548,-128.0257 z m 667.4671,103.2756 c -2.11807,-0.4314 -3.334,-0.6668 -3.334,-0.6668 -1.09826,0 -2.0004,-0.9021 -2.0004,-2.0004 0,-1.0982 0.90214,-1.9611 2.0004,-1.9611 0.0392,-0.039 18.12128,-1.4905 36.63479,-3.4517 6.27577,-0.706 12.39464,-1.569 17.96439,-2.1573 6.86412,-0.7453 12.47309,-1.059 14.90495,-2.1181 1.92195,-0.7845 3.68701,-2.1181 4.82449,-4.393 1.21593,-2.3534 2.1573,-5.3344 2.35341,-9.2176 l 4.00081,-108.8453 c -0.0392,-1.0983 0.86291,-2.0004 1.92195,-2.0396 1.09826,0 2.0004,0.8629 2.03962,1.9219 l 9.02142,108.9238 c 0.47068,9.0999 -1.56894,15.8071 -4.62838,20.6708 -1.3336,2.1573 -2.90254,3.9616 -4.62838,5.4521 -0.23534,10.4335 -2.62797,30.8297 -17.88593,27.378 -17.21914,-3.8831 -53.14791,-22.2789 -63.18914,-27.4957 z m -198.00046,-88.3706 c 6.58955,-8.7469 17.06224,-14.3951 28.86853,-14.3951 19.92556,0 36.08566,16.1994 36.08566,36.1249 0,19.9256 -16.1601,36.0857 -36.08566,36.0857 -19.53333,0 -35.45809,-15.4933 -36.08567,-34.8697 2.8241,6.2365 9.09987,10.5903 16.39545,10.5903 9.96278,0 18.04283,-8.08 18.04283,-18.0036 0,-9.9628 -8.08005,-18.0428 -18.04283,-18.0428 -3.334,0 -6.47189,0.9413 -9.17831,2.5103 z m 318.18141,-51.6574 c 6.23654,-8.3154 16.16012,-13.6498 27.29962,-13.6498 18.8665,0 34.1637,15.2972 34.1637,34.1637 0,18.8665 -15.2972,34.1637 -34.1637,34.1637 -18.47432,0 -33.53616,-14.6696 -34.16374,-32.987 2.70642,5.9228 8.62918,10.002 15.53252,10.002 9.41362,0 17.06222,-7.6486 17.06222,-17.023 0,-9.4137 -7.6486,-17.0623 -17.06222,-17.0623 -3.1771,0 -6.11887,0.863 -8.6684,2.3927 z m -794.04149,8.5899 c -4.70682,-21.2591 -9.21753,-42.4398 -13.84591,-63.346 -14.94417,-13.88513 -40.94938,-13.4929 -62.71845,-4.78527 -23.024221,9.21757 -42.322207,29.26077 -37.576157,57.03107 1.686612,9.9235 6.040426,25.4953 12.080852,43.7734 3.490896,-6.7856 7.844709,-12.7476 12.708425,-18.0036 8.19773,-8.8645 17.92517,-15.454 28.82931,-19.4941 15.92476,-5.8443 33.77148,-6.1973 50.67682,0.078 3.37323,1.2551 6.66801,2.8633 9.84511,4.746 z m 484.68537,-73.26955 c 21.92597,-7.33481 42.91057,-15.84632 62.75768,-26.27978 13.4929,-7.09946 26.51512,-14.9834 38.79209,-23.84792 12.31619,-8.86452 23.84791,-18.74885 34.90895,-29.26076 16.19933,-15.45408 31.02583,-32.55555 45.02864,-50.95139 0.27456,-0.39224 0.23534,-0.94137 -0.11767,-1.21593 -0.39224,-0.31379 -0.90215,-0.27457 -1.21593,0.11767 -15.37563,16.90535 -31.77108,32.12408 -48.7941,46.32301 -11.4925,9.57054 -23.41645,18.43507 -35.49731,27.06425 -12.04163,8.6684 -24.3186,17.02302 -37.06625,24.8285 -18.90575,11.61017 -38.4783,22.39665 -59.38445,31.61418 -0.47068,0.15689 -0.6668,0.6668 -0.5099,1.09826 0.15689,0.47068 0.6668,0.6668 1.09825,0.50991 z m -41.49851,-23.76947 c 13.76747,-4.1577 26.94658,-8.9822 39.38044,-15.21874 8.51151,-4.27537 16.67001,-9.02142 24.3186,-14.55194 7.64859,-5.53052 14.70883,-11.80628 21.45528,-18.51351 9.88434,-9.80589 18.74886,-20.71003 27.10347,-32.35943 0.31379,-0.39223 0.27457,-0.94136 -0.11767,-1.21593 -0.35301,-0.31379 -0.90214,-0.27456 -1.21593,0.11767 -9.76666,10.19813 -20.1609,19.18032 -30.86893,27.73105 -7.17791,5.72664 -14.59116,11.02182 -22.04363,16.317 -7.41325,5.29518 -14.8265,10.59035 -22.55354,15.53252 -11.53172,7.41325 -23.33801,14.47349 -36.08566,20.55314 -0.43146,0.19612 -0.66681,0.6668 -0.50991,1.13748 0.19612,0.43146 0.70602,0.6668 1.13748,0.47069 z M 433.89547,867.44277 c 30.28058,-37.73305 57.18793,-77.89796 80.36905,-118.25899 9.76666,-16.9838 18.59196,-33.92837 26.90735,-50.67682 5.72664,-11.53173 11.21793,-22.86733 16.27777,-34.12449 4.39304,-9.72744 8.62918,-19.25876 12.43387,-28.79008 6.0012,-15.10107 11.10026,-29.8099 14.8265,-44.59718 6.86412,-26.9858 9.96278,-53.03023 6.35421,-78.957 -0.23534,-0.90214 0.31379,-1.76506 1.17671,-2.0004 0.86292,-0.23534 1.76506,0.27457 2.0004,1.17671 11.76706,30.94738 15.3364,64.52273 10.78647,100.17694 -2.78487,21.69062 -8.70762,43.8127 -17.37603,65.85633 -4.86372,12.3162 -10.8257,24.55394 -17.61137,36.55635 -9.64899,17.14069 -21.06305,33.77147 -33.45769,50.20614 -11.84551,15.72864 -24.67161,30.9866 -38.39985,45.93077 -19.96478,21.72985 -41.45929,42.28299 -63.81671,62.09088 -0.62758,0.6668 -1.64739,0.6668 -2.31419,0.0392 -0.62758,-0.62758 -0.6668,-1.64739 -0.0392,-2.31419 l 0.35301,-0.43146 c 3.80468,-15.61097 4.1577,-28.94697 2.86332,-40.91016 -0.8237,-8.0016 -2.6672,-15.10106 -4.78527,-21.84751 -0.0785,-0.19612 -0.11768,-0.39224 -0.19612,-0.58836 -0.31379,4.27537 -0.98059,8.78608 -2.03963,13.37523 -1.45127,6.66801 -3.8439,13.45368 -6.51111,20.43547 -5.09906,12.1593 -11.45327,24.59317 -20.31779,36.28178 -7.92316,10.47269 -17.37603,20.16091 -29.10387,28.67242 -1.05904,0.98058 -2.74565,0.90214 -3.76547,-0.19612 -0.98058,-1.05904 -0.90214,-2.78487 0.1569,-3.76546 8.86452,-10.1589 15.29718,-21.02382 20.47469,-32.08486 5.56974,-11.92396 9.09986,-23.88714 11.45328,-35.41887 1.49049,-6.47188 2.23574,-12.74765 3.25555,-18.70963 0.70602,-4.35381 1.45127,-8.51151 2.19652,-12.43386 1.13748,-5.80509 2.35341,-10.9826 3.37322,-15.68942 1.52972,-6.98179 3.09866,-12.1593 3.76546,-16.00321 -0.19611,-3.56934 2.54954,-6.58956 6.11888,-6.8249 0.19612,-0.11767 0.35301,-0.23534 0.58835,-0.35301 1.4905,-0.78447 3.29478,-0.19612 4.07925,1.29438 2.11807,2.58875 4.23614,5.05984 6.43266,7.92316 1.37283,1.80428 2.62798,3.60856 3.92236,5.60896 2.0004,3.13789 3.8439,6.51111 5.45207,10.11968 1.13748,2.58875 2.15729,5.3344 2.94177,8.19772 1.76506,6.31499 2.78487,13.06144 3.02021,20.27857 0.19612,5.56975 -0.0392,11.33561 -1.01981,17.37603 -1.60817,10.43347 -4.98139,21.41606 -10.8257,33.37924 z M 373.21664,597.78089 c 0.15689,-0.23534 0.35301,-0.43146 0.54913,-0.62758 C 479.55168,490.07303 671.90395,366.32274 866.09973,290.93508 920.38512,269.83281 974.8274,252.6529 1027.6223,240.53282 952.27386,138.82616 869.66907,90.502754 784.39708,75.480135 683.9848,57.751092 580.39542,85.952822 481.82664,124.98025 368.23525,170.00888 262.72391,243.94527 189.4151,321.92168 126.18674,389.15084 86.100276,458.26273 91.866138,513.56793 c 10.433462,99.98082 60.168922,278.44796 86.644812,371.2901 32.08486,-64.64041 68.7981,-138.57679 125.63302,-210.94424 20.27858,-25.76987 43.06746,-51.3044 69.07267,-76.1329 z M 1162.669,629.1205 c 34.7128,-14.08125 96.8037,-40.91016 152.4619,-72.40667 39.7335,-22.47509 76.329,-46.91136 94.6464,-72.01443 31.1043,-41.65541 16.4739,-94.05806 -21.2199,-136.57639 -32.5556,-36.71324 -82.5264,-66.87615 -142.8914,-77.34883 -126.9666,-23.25957 -296.60847,18.23894 -457.34656,85.42888 -64.60118,26.9858 -127.75109,58.20774 -186.15496,91.39087 21.06305,-9.09987 42.20454,-17.17992 63.22836,-24.16171 49.73546,-16.59156 98.92179,-27.49571 145.51936,-33.92837 54.32461,-7.53092 105.15833,-8.8253 149.55939,-5.37362 65.26801,5.09906 116.69001,17.17991 144.53881,40.63559 3.6477,3.05944 6.7464,9.4921 8.433,12.19852 33.5754,53.77549 47.8527,109.19836 49.1471,174.34867 0.1177,5.84431 0.1569,11.76706 0.079,17.80749 z"
     id="path34"
     style="stroke-width:3.92235;fill:#ffffff" /></g>
</svg>
