<?xml version="1.0" encoding="UTF-8" standalone="no"?>
<!DOCTYPE svg PUBLIC "-//W3C//DTD SVG 1.0//EN" "http://www.w3.org/TR/2001/PR-SVG-20010719/DTD/svg10.dtd">
<svg width="46cm" height="33cm" viewBox="-375 -7 920 653" xmlns="http://www.w3.org/2000/svg" xmlns:xlink="http://www.w3.org/1999/xlink">
  <defs/>
  <g id="Fondo">
    <rect style="fill: #ffffff; fill-opacity: 1; stroke-opacity: 1; stroke-width: 2; stroke: #000000" x="-186.996" y="384" width="153" height="65" rx="0" ry="0"/>
    <text font-size="12.8" style="fill: #000000; fill-opacity: 1; stroke: none;text-anchor:middle;font-family:sans-serif;font-style:normal;font-weight:normal" x="-110.496" y="404.925">
      <tspan x="-110.496" y="404.925">root</tspan>
      <tspan x="-110.496" y="420.925">&lt;&lt;wbefore&gt;&gt;</tspan>
      <tspan x="-110.496" y="436.925">[ip4]</tspan>
    </text>
    <rect style="fill: #ffffff; fill-opacity: 1; stroke-opacity: 1; stroke-width: 2; stroke: #000000" x="-373.696" y="299.5" width="153" height="65" rx="0" ry="0"/>
    <text font-size="12.8" style="fill: #000000; fill-opacity: 1; stroke: none;text-anchor:middle;font-family:sans-serif;font-style:normal;font-weight:normal" x="-297.196" y="320.425">
      <tspan x="-297.196" y="320.425">my-whitelist</tspan>
      <tspan x="-297.196" y="336.425">&lt;&lt;file&gt;&gt;</tspan>
      <tspan x="-297.196" y="352.425">[ip4]</tspan>
    </text>
    <rect style="fill: #ffffff; fill-opacity: 1; stroke-opacity: 1; stroke-width: 2; stroke: #000000" x="-88.696" y="277.5" width="153" height="65" rx="0" ry="0"/>
    <text font-size="12.8" style="fill: #000000; fill-opacity: 1; stroke: none;text-anchor:middle;font-family:sans-serif;font-style:normal;font-weight:normal" x="-12.196" y="298.425">
      <tspan x="-12.196" y="298.425">blacklist</tspan>
      <tspan x="-12.196" y="314.425">&lt;&lt;sequence&gt;&gt;</tspan>
      <tspan x="-12.196" y="330.425">[ip4]</tspan>
    </text>
    <rect style="fill: #ffffff; fill-opacity: 1; stroke-opacity: 1; stroke-width: 2; stroke: #000000" x="-305.696" y="205.5" width="153" height="65" rx="0" ry="0"/>
    <text font-size="12.8" style="fill: #000000; fill-opacity: 1; stroke: none;text-anchor:middle;font-family:sans-serif;font-style:normal;font-weight:normal" x="-229.196" y="226.425">
      <tspan x="-229.196" y="226.425">my-blacklist</tspan>
      <tspan x="-229.196" y="242.425">&lt;&lt;file&gt;&gt;</tspan>
      <tspan x="-229.196" y="258.425">[ip4]</tspan>
    </text>
    <g>
      <line style="fill: none; stroke-opacity: 1; stroke-width: 2; stroke: #000000" x1="-184.337" y1="383.08" x2="-214.485" y2="369.435"/>
      <polygon style="fill: #000000; fill-opacity: 1; stroke-opacity: 1; stroke-width: 2; stroke: #000000" fill-rule="evenodd" points="-221.318,366.342 -210.146,365.911 -214.485,369.435 -214.269,375.021 "/>
    </g>
    <g>
      <line style="fill: none; stroke-opacity: 1; stroke-width: 2; stroke: #000000" x1="-79.5733" y1="382.998" x2="-49.7222" y2="350.657"/>
      <polygon style="fill: #000000; fill-opacity: 1; stroke-opacity: 1; stroke-width: 2; stroke: #000000" fill-rule="evenodd" points="-44.6354,345.145 -47.7437,355.885 -49.7222,350.657 -55.092,349.102 "/>
    </g>
    <g>
      <line style="fill: none; stroke-opacity: 1; stroke-width: 2; stroke: #000000" x1="-89.6771" y1="284.292" x2="-142.474" y2="266.774"/>
      <polygon style="fill: #000000; fill-opacity: 1; stroke-opacity: 1; stroke-width: 2; stroke: #000000" fill-rule="evenodd" points="-149.593,264.412 -138.527,262.816 -142.474,266.774 -141.676,272.307 "/>
    </g>
    <g>
      <ellipse style="fill: #ffffff; fill-opacity: 1; stroke-opacity: 1; stroke-width: 2; stroke: #000000" cx="-111.696" cy="554.75" rx="6" ry="6"/>
      <line style="fill: none; stroke-opacity: 1; stroke-width: 2; stroke: #000000" x1="-135.696" y1="566.75" x2="-87.696" y2="566.75"/>
      <line style="fill: none; stroke-opacity: 1; stroke-width: 2; stroke: #000000" x1="-111.696" y1="560.75" x2="-111.696" y2="590.75"/>
      <line style="fill: none; stroke-opacity: 1; stroke-width: 2; stroke: #000000" x1="-111.696" y1="590.75" x2="-135.696" y2="616.75"/>
      <line style="fill: none; stroke-opacity: 1; stroke-width: 2; stroke: #000000" x1="-111.696" y1="590.75" x2="-87.696" y2="616.75"/>
      <text font-size="12.8" style="fill: #000000; fill-opacity: 1; stroke: none;text-anchor:middle;font-family:sans-serif;font-style:normal;font-weight:normal" x="-111.696" y="640.65">
        <tspan x="-111.696" y="640.65"></tspan>
      </text>
    </g>
    <g>
      <line style="fill: none; stroke-opacity: 1; stroke-width: 2; stroke: #000000" x1="-111.346" y1="535.773" x2="-111.05" y2="489.275"/>
      <polygon style="fill: #000000; fill-opacity: 1; stroke-opacity: 1; stroke-width: 2; stroke: #000000" fill-rule="evenodd" points="-111.002,481.775 -106.066,491.807 -111.05,489.275 -116.065,491.743 "/>
    </g>
    <text font-size="12.8" style="fill: #000000; fill-opacity: 1; stroke: none;text-anchor:start;font-family:sans-serif;font-style:normal;font-weight:normal" x="-97.696" y="516.25">
      <tspan x="-97.696" y="516.25">REQUEST</tspan>
    </text>
    <g>
      <line style="fill: none; stroke-opacity: 1; stroke-width: 2; stroke: #000000" x1="-51.5626" y1="122.907" x2="-81.9126" y2="94.6884"/>
      <polygon style="fill: #000000; fill-opacity: 1; stroke-opacity: 1; stroke-width: 2; stroke: #000000" fill-rule="evenodd" points="-87.4052,89.5814 -76.6771,92.7289 -81.9126,94.6884 -83.4863,100.052 "/>
    </g>
    <g>
      <line style="fill: none; stroke-opacity: 1; stroke-width: 2; stroke: #000000" x1="35.3471" y1="122.653" x2="74.112" y2="97.2571"/>
      <polygon style="fill: #000000; fill-opacity: 1; stroke-opacity: 1; stroke-width: 2; stroke: #000000" fill-rule="evenodd" points="80.3856,93.1472 74.7607,102.81 74.112,97.2571 69.2808,94.4447 "/>
    </g>
    <g>
      <line style="fill: none; stroke-opacity: 1; stroke-width: 2; stroke: #000000" x1="61.6986" y1="156.566" x2="140.162" y2="156.978"/>
      <polygon style="fill: #000000; fill-opacity: 1; stroke-opacity: 1; stroke-width: 2; stroke: #000000" fill-rule="evenodd" points="147.662,157.017 137.636,161.965 140.162,156.978 137.689,151.965 "/>
    </g>
    <g>
      <line style="fill: none; stroke-opacity: 1; stroke-width: 2; stroke: #000000" x1="-93.0866" y1="152.375" x2="-163.732" y2="148.915"/>
      <polygon style="fill: #000000; fill-opacity: 1; stroke-opacity: 1; stroke-width: 2; stroke: #000000" fill-rule="evenodd" points="-171.223,148.548 -160.99,144.043 -163.732,148.915 -161.479,154.031 "/>
    </g>
    <g>
      <rect style="fill: #ffffff; fill-opacity: 1; stroke-opacity: 1; stroke-width: 2; stroke: #000000" x="-327.443" y="62.559" width="153" height="65" rx="0" ry="0"/>
      <text font-size="12.8" style="fill: #000000; fill-opacity: 1; stroke: none;text-anchor:middle;font-family:sans-serif;font-style:normal;font-weight:normal" x="-250.943" y="83.4841">
        <tspan x="-250.943" y="83.4841">barracudacentral.org</tspan>
        <tspan x="-250.943" y="99.4841">&lt;&lt;dnsxl&gt;&gt;</tspan>
        <tspan x="-250.943" y="115.484">[ip4]</tspan>
      </text>
      <rect style="fill: #ffffff; fill-opacity: 1; stroke-opacity: 1; stroke-width: 2; stroke: #000000" x="-326.843" y="131.259" width="152.4" height="26.8" rx="0" ry="0"/>
      <text font-size="12.8" style="fill: #000000; fill-opacity: 1; stroke: none;text-anchor:middle;font-family:sans-serif;font-style:normal;font-weight:normal" x="-250.643" y="149.084">
        <tspan x="-250.643" y="149.084">&lt;&lt;score = 10&gt;&gt;</tspan>
      </text>
    </g>
    <g>
      <rect style="fill: #ffffff; fill-opacity: 1; stroke-opacity: 1; stroke-width: 2; stroke: #000000" x="-147.743" y="-5.7412" width="117.4" height="63.8" rx="0" ry="0"/>
      <text font-size="12.8" style="fill: #000000; fill-opacity: 1; stroke: none;text-anchor:middle;font-family:sans-serif;font-style:normal;font-weight:normal" x="-89.0428" y="14.5839">
        <tspan x="-89.0428" y="14.5839">...</tspan>
        <tspan x="-89.0428" y="30.5839">&lt;&lt;dnsxl&gt;&gt;</tspan>
        <tspan x="-89.0428" y="46.5839">[ip4]</tspan>
      </text>
      <rect style="fill: #ffffff; fill-opacity: 1; stroke-opacity: 1; stroke-width: 2; stroke: #000000" x="-147.743" y="61.2588" width="117.4" height="26.8" rx="0" ry="0"/>
      <text font-size="12.8" style="fill: #000000; fill-opacity: 1; stroke: none;text-anchor:middle;font-family:sans-serif;font-style:normal;font-weight:normal" x="-89.0428" y="79.0838">
        <tspan x="-89.0428" y="79.0838">&lt;&lt;score = 10&gt;&gt;</tspan>
      </text>
    </g>
    <g>
      <rect style="fill: #ffffff; fill-opacity: 1; stroke-opacity: 1; stroke-width: 2; stroke: #000000" x="6.456" y="-3.578" width="153" height="65" rx="0" ry="0"/>
      <text font-size="12.8" style="fill: #000000; fill-opacity: 1; stroke: none;text-anchor:middle;font-family:sans-serif;font-style:normal;font-weight:normal" x="82.956" y="17.347">
        <tspan x="82.956" y="17.347">spamhaus.org-zen</tspan>
        <tspan x="82.956" y="33.347">&lt;&lt;dnsxl&gt;&gt;</tspan>
        <tspan x="82.956" y="49.347">[ip4]</tspan>
      </text>
      <rect style="fill: #ffffff; fill-opacity: 1; stroke-opacity: 1; stroke-width: 2; stroke: #000000" x="6.056" y="65.1218" width="152.4" height="26.8" rx="0" ry="0"/>
      <text font-size="12.8" style="fill: #000000; fill-opacity: 1; stroke: none;text-anchor:middle;font-family:sans-serif;font-style:normal;font-weight:normal" x="82.256" y="82.9468">
        <tspan x="82.256" y="82.9468">&lt;&lt;score = 10&gt;&gt;</tspan>
      </text>
    </g>
    <rect style="fill: #ffffff; fill-opacity: 1; stroke-opacity: 1; stroke-width: 2; stroke: #000000" x="375.654" y="30.759" width="153" height="65" rx="0" ry="0"/>
    <text font-size="12.8" style="fill: #000000; fill-opacity: 1; stroke: none;text-anchor:middle;font-family:sans-serif;font-style:normal;font-weight:normal" x="452.154" y="51.684">
      <tspan x="452.154" y="51.684">sorbs.net-dul</tspan>
      <tspan x="452.154" y="67.684">&lt;&lt;dnsxl&gt;&gt;</tspan>
      <tspan x="452.154" y="83.684">[ip4]</tspan>
    </text>
    <rect style="fill: #ffffff; fill-opacity: 1; stroke-opacity: 1; stroke-width: 2; stroke: #000000" x="391.254" y="133.759" width="153" height="65" rx="0" ry="0"/>
    <text font-size="12.8" style="fill: #000000; fill-opacity: 1; stroke: none;text-anchor:middle;font-family:sans-serif;font-style:normal;font-weight:normal" x="467.754" y="154.684">
      <tspan x="467.754" y="154.684">sorbs.net-recent</tspan>
      <tspan x="467.754" y="170.684">&lt;&lt;dnsxl&gt;&gt;</tspan>
      <tspan x="467.754" y="186.684">[ip4]</tspan>
    </text>
    <rect style="fill: #ffffff; fill-opacity: 1; stroke-opacity: 1; stroke-width: 2; stroke: #000000" x="390.254" y="234.759" width="153" height="65" rx="0" ry="0"/>
    <text font-size="12.8" style="fill: #000000; fill-opacity: 1; stroke: none;text-anchor:middle;font-family:sans-serif;font-style:normal;font-weight:normal" x="466.754" y="255.684">
      <tspan x="466.754" y="255.684">sorbs.net-new</tspan>
      <tspan x="466.754" y="271.684">&lt;&lt;dnsxl&gt;&gt;</tspan>
      <tspan x="466.754" y="287.684">[ip4]</tspan>
    </text>
    <g>
      <line style="fill: none; stroke-opacity: 1; stroke-width: 2; stroke: #000000" x1="304.89" y1="124.965" x2="365.681" y2="99.4925"/>
      <polygon style="fill: #000000; fill-opacity: 1; stroke-opacity: 1; stroke-width: 2; stroke: #000000" fill-rule="evenodd" points="372.598,96.5941 365.307,105.07 365.681,99.4925 361.443,95.8471 "/>
    </g>
    <g>
      <line style="fill: none; stroke-opacity: 1; stroke-width: 2; stroke: #000000" x1="304.884" y1="160.28" x2="380.536" y2="163.057"/>
      <polygon style="fill: #000000; fill-opacity: 1; stroke-opacity: 1; stroke-width: 2; stroke: #000000" fill-rule="evenodd" points="388.031,163.332 377.854,167.962 380.536,163.057 378.221,157.969 "/>
    </g>
    <g>
      <line style="fill: none; stroke-opacity: 1; stroke-width: 2; stroke: #000000" x1="300.384" y1="190.924" x2="384.917" y2="229.71"/>
      <polygon style="fill: #000000; fill-opacity: 1; stroke-opacity: 1; stroke-width: 2; stroke: #000000" fill-rule="evenodd" points="391.734,232.838 380.56,233.212 384.917,229.71 384.73,224.123 "/>
    </g>
    <g>
      <rect style="fill: #ffffff; fill-opacity: 1; stroke-opacity: 1; stroke-width: 2; stroke: #000000" x="-92.299" y="123.66" width="153" height="65" rx="0" ry="0"/>
      <text font-size="12.8" style="fill: #000000; fill-opacity: 1; stroke: none;text-anchor:middle;font-family:sans-serif;font-style:normal;font-weight:normal" x="-15.799" y="144.585">
        <tspan x="-15.799" y="144.585">remote-blacklists</tspan>
        <tspan x="-15.799" y="160.585">&lt;&lt;parallel&gt;&gt;</tspan>
        <tspan x="-15.799" y="176.585">[ip4]</tspan>
      </text>
      <rect style="fill: #ffffff; fill-opacity: 1; stroke-opacity: 1; stroke-width: 2; stroke: #000000" x="-91.6292" y="190.738" width="152.4" height="26.8" rx="0" ry="0"/>
      <text font-size="12.8" style="fill: #000000; fill-opacity: 1; stroke: none;text-anchor:middle;font-family:sans-serif;font-style:normal;font-weight:normal" x="-15.4292" y="208.563">
        <tspan x="-15.4292" y="208.563">&lt;&lt;response &gt; 20&gt;&gt;</tspan>
      </text>
      <rect style="fill: #ffffff; fill-opacity: 1; stroke-opacity: 1; stroke-width: 2; stroke: #000000" x="-91.746" y="218.759" width="152.4" height="26.8" rx="0" ry="0"/>
      <text font-size="12.8" style="fill: #000000; fill-opacity: 1; stroke: none;text-anchor:middle;font-family:sans-serif;font-style:normal;font-weight:normal" x="-15.546" y="236.584">
        <tspan x="-15.546" y="236.584">&lt;&lt;cache&gt;&gt;</tspan>
      </text>
    </g>
    <g>
      <line style="fill: none; stroke-opacity: 1; stroke-width: 2; stroke: #000000" x1="-13.6375" y1="276.505" x2="-14.5083" y2="256.272"/>
      <polygon style="fill: #000000; fill-opacity: 1; stroke-opacity: 1; stroke-width: 2; stroke: #000000" fill-rule="evenodd" points="-14.8307,248.779 -9.40539,258.555 -14.5083,256.272 -19.3961,258.985 "/>
    </g>
    <rect style="fill: #ffffff; fill-opacity: 1; stroke-opacity: 1; stroke-width: 2; stroke: #000000" x="-187.096" y="451.759" width="152.4" height="26.8" rx="0" ry="0"/>
    <text font-size="12.8" style="fill: #000000; fill-opacity: 1; stroke: none;text-anchor:middle;font-family:sans-serif;font-style:normal;font-weight:normal" x="-110.896" y="469.584">
      <tspan x="-110.896" y="469.584">&lt;&lt;logger&gt;&gt;</tspan>
    </text>
    <g>
      <rect style="fill: #ffffff; fill-opacity: 1; stroke-opacity: 1; stroke-width: 2; stroke: #000000" x="150.896" y="124.936" width="153" height="65" rx="0" ry="0"/>
      <text font-size="12.8" style="fill: #000000; fill-opacity: 1; stroke: none;text-anchor:middle;font-family:sans-serif;font-style:normal;font-weight:normal" x="227.396" y="145.861">
        <tspan x="227.396" y="145.861">any-sorbs</tspan>
        <tspan x="227.396" y="161.861">&lt;&lt;parallel&gt;&gt;</tspan>
        <tspan x="227.396" y="177.861">[ip4]</tspan>
      </text>
      <rect style="fill: #ffffff; fill-opacity: 1; stroke-opacity: 1; stroke-width: 2; stroke: #000000" x="150.896" y="192.021" width="152.4" height="26.8" rx="0" ry="0"/>
      <text font-size="12.8" style="fill: #000000; fill-opacity: 1; stroke: none;text-anchor:middle;font-family:sans-serif;font-style:normal;font-weight:normal" x="227.096" y="209.847">
        <tspan x="227.096" y="209.847">&lt;&lt;score = 10&gt;&gt;</tspan>
      </text>
    </g>
  </g>
</svg>
