<?xml version="1.0" encoding="UTF-8" standalone="no"?>
<!DOCTYPE svg PUBLIC "-//W3C//DTD SVG 1.0//EN" "http://www.w3.org/TR/2001/PR-SVG-20010719/DTD/svg10.dtd">
<svg width="47cm" height="33cm" viewBox="-467 -29 939 657" xmlns="http://www.w3.org/2000/svg" xmlns:xlink="http://www.w3.org/1999/xlink">
  <defs/>
  <g id="Fondo">
    <rect style="fill: #ffffff; fill-opacity: 1; stroke-opacity: 1; stroke-width: 2; stroke: #000000" x="-186.996" y="384" width="153" height="65" rx="0" ry="0"/>
    <text font-size="12.8" style="fill: #000000; fill-opacity: 1; stroke: none;text-anchor:middle;font-family:sans-serif;font-style:normal;font-weight:normal" x="-110.496" y="404.738">
      <tspan x="-110.496" y="404.738">root</tspan>
      <tspan x="-110.496" y="420.738">&lt;&lt;wbefore&gt;&gt;</tspan>
      <tspan x="-110.496" y="436.738">[ip4]</tspan>
    </text>
    <rect style="fill: #ffffff; fill-opacity: 1; stroke-opacity: 1; stroke-width: 2; stroke: #000000" x="-406.696" y="369.5" width="153" height="65" rx="0" ry="0"/>
    <text font-size="12.8" style="fill: #000000; fill-opacity: 1; stroke: none;text-anchor:middle;font-family:sans-serif;font-style:normal;font-weight:normal" x="-330.196" y="390.425">
      <tspan x="-330.196" y="390.425">my-whitelist</tspan>
      <tspan x="-330.196" y="406.425">&lt;&lt;file&gt;&gt;</tspan>
      <tspan x="-330.196" y="422.425">[ip4]</tspan>
    </text>
    <rect style="fill: #ffffff; fill-opacity: 1; stroke-opacity: 1; stroke-width: 2; stroke: #000000" x="-188.696" y="292.5" width="153" height="65" rx="0" ry="0"/>
    <text font-size="12.8" style="fill: #000000; fill-opacity: 1; stroke: none;text-anchor:middle;font-family:sans-serif;font-style:normal;font-weight:normal" x="-112.196" y="313.425">
      <tspan x="-112.196" y="313.425">blacklist</tspan>
      <tspan x="-112.196" y="329.425">&lt;&lt;sequence&gt;&gt;</tspan>
      <tspan x="-112.196" y="345.425">[ip4]</tspan>
    </text>
    <rect style="fill: #ffffff; fill-opacity: 1; stroke-opacity: 1; stroke-width: 2; stroke: #000000" x="-462.696" y="261.5" width="153" height="65" rx="0" ry="0"/>
    <text font-size="12.8" style="fill: #000000; fill-opacity: 1; stroke: none;text-anchor:middle;font-family:sans-serif;font-style:normal;font-weight:normal" x="-386.196" y="282.425">
      <tspan x="-386.196" y="282.425">my-blacklist</tspan>
      <tspan x="-386.196" y="298.425">&lt;&lt;file&gt;&gt;</tspan>
      <tspan x="-386.196" y="314.425">[ip4]</tspan>
    </text>
    <g>
      <line style="fill: none; stroke-opacity: 1; stroke-width: 2; stroke: #000000" x1="-187.976" y1="411.386" x2="-243.001" y2="407.755"/>
      <polygon style="fill: #000000; fill-opacity: 1; stroke-opacity: 1; stroke-width: 2; stroke: #000000" fill-rule="evenodd" points="-250.485,407.261 -240.178,402.93 -243.001,407.755 -240.836,412.909 "/>
    </g>
    <g>
      <line style="fill: none; stroke-opacity: 1; stroke-width: 2; stroke: #000000" x1="-111.118" y1="383.036" x2="-111.393" y2="368.198"/>
      <polygon style="fill: #000000; fill-opacity: 1; stroke-opacity: 1; stroke-width: 2; stroke: #000000" fill-rule="evenodd" points="-111.533,360.699 -106.348,370.605 -111.393,368.198 -116.346,370.79 "/>
    </g>
    <g>
      <line style="fill: none; stroke-opacity: 1; stroke-width: 2; stroke: #000000" x1="-189.702" y1="316.231" x2="-299.016" y2="303.864"/>
      <polygon style="fill: #000000; fill-opacity: 1; stroke-opacity: 1; stroke-width: 2; stroke: #000000" fill-rule="evenodd" points="-306.468,303.02 -295.97,299.176 -299.016,303.864 -297.094,309.113 "/>
    </g>
    <g>
      <ellipse style="fill: #ffffff; fill-opacity: 1; stroke-opacity: 1; stroke-width: 2; stroke: #000000" cx="-109.696" cy="536.75" rx="6" ry="6"/>
      <line style="fill: none; stroke-opacity: 1; stroke-width: 2; stroke: #000000" x1="-133.696" y1="548.75" x2="-85.696" y2="548.75"/>
      <line style="fill: none; stroke-opacity: 1; stroke-width: 2; stroke: #000000" x1="-109.696" y1="542.75" x2="-109.696" y2="572.75"/>
      <line style="fill: none; stroke-opacity: 1; stroke-width: 2; stroke: #000000" x1="-109.696" y1="572.75" x2="-133.696" y2="598.75"/>
      <line style="fill: none; stroke-opacity: 1; stroke-width: 2; stroke: #000000" x1="-109.696" y1="572.75" x2="-85.696" y2="598.75"/>
      <text font-size="12.8" style="fill: #000000; fill-opacity: 1; stroke: none;text-anchor:middle;font-family:sans-serif;font-style:normal;font-weight:normal" x="-109.696" y="622.65">
        <tspan x="-109.696" y="622.65"></tspan>
      </text>
    </g>
    <g>
      <line style="fill: none; stroke-opacity: 1; stroke-width: 2; stroke: #000000" x1="-109.977" y1="517.78" x2="-110.275" y2="459.739"/>
      <polygon style="fill: #000000; fill-opacity: 1; stroke-opacity: 1; stroke-width: 2; stroke: #000000" fill-rule="evenodd" points="-110.313,452.239 -105.262,462.213 -110.275,459.739 -115.262,462.264 "/>
    </g>
    <text font-size="12.8" style="fill: #000000; fill-opacity: 1; stroke: none;text-anchor:start;font-family:sans-serif;font-style:normal;font-weight:normal" x="-100.696" y="493.25">
      <tspan x="-100.696" y="493.25">REQUEST</tspan>
    </text>
    <rect style="fill: #ffffff; fill-opacity: 1; stroke-opacity: 1; stroke-width: 2; stroke: #000000" x="-330.096" y="182.2" width="153" height="65" rx="0" ry="0"/>
    <text font-size="12.8" style="fill: #000000; fill-opacity: 1; stroke: none;text-anchor:middle;font-family:sans-serif;font-style:normal;font-weight:normal" x="-253.596" y="203.125">
      <tspan x="-253.596" y="203.125">high-confidence</tspan>
      <tspan x="-253.596" y="219.125">&lt;&lt;sequence&gt;&gt;</tspan>
      <tspan x="-253.596" y="235.125">[ip4]</tspan>
    </text>
    <rect style="fill: #ffffff; fill-opacity: 1; stroke-opacity: 1; stroke-width: 2; stroke: #000000" x="-465.346" y="85.7858" width="153" height="65" rx="0" ry="0"/>
    <text font-size="12.8" style="fill: #000000; fill-opacity: 1; stroke: none;text-anchor:middle;font-family:sans-serif;font-style:normal;font-weight:normal" x="-388.846" y="106.711">
      <tspan x="-388.846" y="106.711">alienvault.com</tspan>
      <tspan x="-388.846" y="122.711">&lt;&lt;file&gt;&gt;</tspan>
      <tspan x="-388.846" y="138.711">[ip4]</tspan>
    </text>
    <rect style="fill: #ffffff; fill-opacity: 1; stroke-opacity: 1; stroke-width: 2; stroke: #000000" x="-293.517" y="87.2" width="81.4" height="63.8" rx="0" ry="0"/>
    <text font-size="12.8" style="fill: #000000; fill-opacity: 1; stroke: none;text-anchor:middle;font-family:sans-serif;font-style:normal;font-weight:normal" x="-252.817" y="107.525">
      <tspan x="-252.817" y="107.525">...</tspan>
      <tspan x="-252.817" y="123.525">&lt;&lt;file&gt;&gt;</tspan>
      <tspan x="-252.817" y="139.525">[ip4]</tspan>
    </text>
    <rect style="fill: #ffffff; fill-opacity: 1; stroke-opacity: 1; stroke-width: 2; stroke: #000000" x="-194.861" y="87.2" width="153" height="65" rx="0" ry="0"/>
    <text font-size="12.8" style="fill: #000000; fill-opacity: 1; stroke: none;text-anchor:middle;font-family:sans-serif;font-style:normal;font-weight:normal" x="-118.361" y="108.125">
      <tspan x="-118.361" y="108.125">talosintelligence.com</tspan>
      <tspan x="-118.361" y="124.125">&lt;&lt;file&gt;&gt;</tspan>
      <tspan x="-118.361" y="140.125">[ip4]</tspan>
    </text>
    <g>
      <line style="fill: none; stroke-opacity: 1; stroke-width: 2; stroke: #000000" x1="-155.149" y1="291.494" x2="-202.966" y2="254.194"/>
      <polygon style="fill: #000000; fill-opacity: 1; stroke-opacity: 1; stroke-width: 2; stroke: #000000" fill-rule="evenodd" points="-208.88,249.581 -197.919,251.79 -202.966,254.194 -204.07,259.674 "/>
    </g>
    <g>
      <line style="fill: none; stroke-opacity: 1; stroke-width: 2; stroke: #000000" x1="-300.352" y1="181.369" x2="-334.162" y2="157.268"/>
      <polygon style="fill: #000000; fill-opacity: 1; stroke-opacity: 1; stroke-width: 2; stroke: #000000" fill-rule="evenodd" points="-340.269,152.914 -329.224,154.648 -334.162,157.268 -335.028,162.791 "/>
    </g>
    <g>
      <line style="fill: none; stroke-opacity: 1; stroke-width: 2; stroke: #000000" x1="-253.323" y1="181.231" x2="-253.165" y2="161.722"/>
      <polygon style="fill: #000000; fill-opacity: 1; stroke-opacity: 1; stroke-width: 2; stroke: #000000" fill-rule="evenodd" points="-253.103,154.222 -248.185,164.262 -253.165,161.722 -258.185,164.181 "/>
    </g>
    <g>
      <line style="fill: none; stroke-opacity: 1; stroke-width: 2; stroke: #000000" x1="-205.904" y1="181.197" x2="-174.02" y2="158.799"/>
      <polygon style="fill: #000000; fill-opacity: 1; stroke-opacity: 1; stroke-width: 2; stroke: #000000" fill-rule="evenodd" points="-167.883,154.488 -173.191,164.328 -174.02,158.799 -178.939,156.145 "/>
    </g>
    <g>
      <rect style="fill: #ffffff; fill-opacity: 1; stroke-opacity: 1; stroke-width: 2; stroke: #000000" x="-75.4433" y="-27.4409" width="153" height="65" rx="0" ry="0"/>
      <text font-size="12.8" style="fill: #000000; fill-opacity: 1; stroke: none;text-anchor:middle;font-family:sans-serif;font-style:normal;font-weight:normal" x="1.05674" y="-6.51593">
        <tspan x="1.05674" y="-6.51593">abuse.ch-feodo</tspan>
        <tspan x="1.05674" y="9.48407">&lt;&lt;file&gt;&gt;</tspan>
        <tspan x="1.05674" y="25.4841">[ip4]</tspan>
      </text>
      <rect style="fill: #ffffff; fill-opacity: 1; stroke-opacity: 1; stroke-width: 2; stroke: #000000" x="-74.8433" y="41.2589" width="152.4" height="26.8" rx="0" ry="0"/>
      <text font-size="12.8" style="fill: #000000; fill-opacity: 1; stroke: none;text-anchor:middle;font-family:sans-serif;font-style:normal;font-weight:normal" x="1.35674" y="59.0839">
        <tspan x="1.35674" y="59.0839">&lt;&lt;score = 10&gt;&gt;</tspan>
      </text>
    </g>
    <g>
      <rect style="fill: #ffffff; fill-opacity: 1; stroke-opacity: 1; stroke-width: 2; stroke: #000000" x="103.257" y="-26.7411" width="117.4" height="63.8" rx="0" ry="0"/>
      <text font-size="12.8" style="fill: #000000; fill-opacity: 1; stroke: none;text-anchor:middle;font-family:sans-serif;font-style:normal;font-weight:normal" x="161.957" y="-6.41613">
        <tspan x="161.957" y="-6.41613">...</tspan>
        <tspan x="161.957" y="9.58387">&lt;&lt;file&gt;&gt;</tspan>
        <tspan x="161.957" y="25.5839">[ip4]</tspan>
      </text>
      <rect style="fill: #ffffff; fill-opacity: 1; stroke-opacity: 1; stroke-width: 2; stroke: #000000" x="103.257" y="40.2589" width="117.4" height="26.8" rx="0" ry="0"/>
      <text font-size="12.8" style="fill: #000000; fill-opacity: 1; stroke: none;text-anchor:middle;font-family:sans-serif;font-style:normal;font-weight:normal" x="161.957" y="58.0839">
        <tspan x="161.957" y="58.0839">&lt;&lt;score = 10&gt;&gt;</tspan>
      </text>
    </g>
    <g>
      <rect style="fill: #ffffff; fill-opacity: 1; stroke-opacity: 1; stroke-width: 2; stroke: #000000" x="243.456" y="-24.578" width="153" height="65" rx="0" ry="0"/>
      <text font-size="12.8" style="fill: #000000; fill-opacity: 1; stroke: none;text-anchor:middle;font-family:sans-serif;font-style:normal;font-weight:normal" x="319.956" y="-3.65301">
        <tspan x="319.956" y="-3.65301">turris.cz</tspan>
        <tspan x="319.956" y="12.347">&lt;&lt;file&gt;&gt;</tspan>
        <tspan x="319.956" y="28.347">[domain]</tspan>
      </text>
      <rect style="fill: #ffffff; fill-opacity: 1; stroke-opacity: 1; stroke-width: 2; stroke: #000000" x="243.056" y="44.1218" width="152.4" height="26.8" rx="0" ry="0"/>
      <text font-size="12.8" style="fill: #000000; fill-opacity: 1; stroke: none;text-anchor:middle;font-family:sans-serif;font-style:normal;font-weight:normal" x="319.256" y="61.9468">
        <tspan x="319.256" y="61.9468">&lt;&lt;score = 10&gt;&gt;</tspan>
      </text>
    </g>
    <g>
      <rect style="fill: #ffffff; fill-opacity: 1; stroke-opacity: 1; stroke-width: 2; stroke: #000000" x="86.701" y="157.66" width="153" height="65" rx="0" ry="0"/>
      <text font-size="12.8" style="fill: #000000; fill-opacity: 1; stroke: none;text-anchor:middle;font-family:sans-serif;font-style:normal;font-weight:normal" x="163.201" y="178.585">
        <tspan x="163.201" y="178.585">low-confidence</tspan>
        <tspan x="163.201" y="194.585">&lt;&lt;sequence&gt;&gt;</tspan>
        <tspan x="163.201" y="210.585">[ip4]</tspan>
      </text>
      <rect style="fill: #ffffff; fill-opacity: 1; stroke-opacity: 1; stroke-width: 2; stroke: #000000" x="87.3708" y="224.739" width="152.4" height="26.8" rx="0" ry="0"/>
      <text font-size="12.8" style="fill: #000000; fill-opacity: 1; stroke: none;text-anchor:middle;font-family:sans-serif;font-style:normal;font-weight:normal" x="163.571" y="242.564">
        <tspan x="163.571" y="242.564">&lt;&lt;response &gt; 10&gt;&gt;</tspan>
      </text>
    </g>
    <g>
      <rect style="fill: #ffffff; fill-opacity: 1; stroke-opacity: 1; stroke-width: 2; stroke: #000000" x="317.897" y="125.936" width="153" height="65" rx="0" ry="0"/>
      <text font-size="12.8" style="fill: #000000; fill-opacity: 1; stroke: none;text-anchor:middle;font-family:sans-serif;font-style:normal;font-weight:normal" x="394.397" y="146.861">
        <tspan x="394.397" y="146.861">foreign-countries</tspan>
        <tspan x="394.397" y="162.861">&lt;&lt;geoip2&gt;&gt;</tspan>
        <tspan x="394.397" y="178.861">[ip4]</tspan>
      </text>
      <rect style="fill: #ffffff; fill-opacity: 1; stroke-opacity: 1; stroke-width: 2; stroke: #000000" x="317.897" y="193.021" width="152.4" height="26.8" rx="0" ry="0"/>
      <text font-size="12.8" style="fill: #000000; fill-opacity: 1; stroke: none;text-anchor:middle;font-family:sans-serif;font-style:normal;font-weight:normal" x="394.097" y="210.846">
        <tspan x="394.097" y="210.846">&lt;&lt;score = 10&gt;&gt;</tspan>
      </text>
    </g>
    <g>
      <line style="fill: none; stroke-opacity: 1; stroke-width: 2; stroke: #000000" x1="-34.6955" y1="300.589" x2="108.553" y2="255.468"/>
      <polygon style="fill: #000000; fill-opacity: 1; stroke-opacity: 1; stroke-width: 2; stroke: #000000" fill-rule="evenodd" points="115.707,253.215 107.671,260.988 108.553,255.468 104.667,251.45 "/>
    </g>
    <g>
      <line style="fill: none; stroke-opacity: 1; stroke-width: 2; stroke: #000000" x1="118.868" y1="156.713" x2="9.12903" y2="73.9225"/>
      <polygon style="fill: #000000; fill-opacity: 1; stroke-opacity: 1; stroke-width: 2; stroke: #000000" fill-rule="evenodd" points="3.14179,69.4056 14.1361,71.4367 9.12903,73.9225 8.11346,79.4197 "/>
    </g>
    <g>
      <line style="fill: none; stroke-opacity: 1; stroke-width: 2; stroke: #000000" x1="162.863" y1="156.665" x2="162.056" y2="76.7944"/>
      <polygon style="fill: #000000; fill-opacity: 1; stroke-opacity: 1; stroke-width: 2; stroke: #000000" fill-rule="evenodd" points="161.98,69.2948 167.081,79.2438 162.056,76.7944 157.081,79.3448 "/>
    </g>
    <g>
      <line style="fill: none; stroke-opacity: 1; stroke-width: 2; stroke: #000000" x1="207.034" y1="156.668" x2="311.52" y2="76.8329"/>
      <polygon style="fill: #000000; fill-opacity: 1; stroke-opacity: 1; stroke-width: 2; stroke: #000000" fill-rule="evenodd" points="317.479,72.2794 312.569,82.3237 311.52,76.8329 306.498,74.3777 "/>
    </g>
    <g>
      <line style="fill: none; stroke-opacity: 1; stroke-width: 2; stroke: #000000" x1="240.706" y1="179.525" x2="307.246" y2="170.394"/>
      <polygon style="fill: #000000; fill-opacity: 1; stroke-opacity: 1; stroke-width: 2; stroke: #000000" fill-rule="evenodd" points="314.676,169.375 305.449,175.688 307.246,170.394 304.09,165.78 "/>
    </g>
  </g>
</svg>
